/* XPM */
stat+c char * west_wall_xpm[] = {
"64 64 3 1",
"+	c #0abb87",
"@	c #ffffff",
"$  c #000000",

"                                                                ",
"................................................................",
"                                                                ",
"+@@@@@@@@@@@@@@@@@@@@@@@@@@@@@@@@@@@@@@@@@@@@@@@@@@@@@@@@@@@@@@+",
"+@@@@@@@@@@@@@@@@@@@@@@@@@@@@@@@@@@@@@@@@@@@@@@@@@@@@@@@@@@@@@@+",
"+@@@@@@@@@@@@@@@@@@@@@@@@@@@@@@@@@@@@@@@@@@@@@@@@@@@@@@@@@@@@@@+",
"+@@@@@@@@@@@@@@@@@@@@@@@@@@@@@@@@@@@@@@@@@@@@@@@@@@@@@@@@@@@@@@+",
"+@@@@@@@@@@@@@@@@@@@@@@@@@@@@@@@@@@@@@@@@@@@@@@@@@@@@@@@@@@@@@@+",
"+@@@@@@@@@@@@@@@@@@@@@@@@@@@@@@@@@@@@@@@@@@@@@@@@@@@@@@@@@@@@@@+",
"+@@@@@@@@@@@@@@@@@@@@@@@@@@@@@@@@@@@@@@@@@@@@@@@@@@@@@@@@@@@@@@+",
"+@@@@@@@@@@@@@@@@@@@@@@@@@@@@@@@@@@@@@@@@@@@@@@@@@@@@@@@@@@@@@@+",
"+@@@@@@@@@@@@@@@@@@@@@@@@@@@@@@@@@@@@@@@@@@@@@@@@@@@@@@@@@@@@@@+",
"+@@@@@@@@@@@@@@@@@@@@@@@@@@@@@@@@@@@@@@@@@@@@@@@@@@@@@@@@@@@@@@+",
"+@@@@@@@@@@@@@@@@@@@@$$$$$$$$$$$$$$$$@@@$$$$$$$$$$$$$$$$@@@@@@@+",
"+@@@@@@@@@@@@@@@@@@@$$$$$$$$$$$$$$$$@@@@$$$$$$@$$$$$$$$$@@@@@@@+",
"+@@@@@@@@@@@@@@@@@@$$$$$$$$$$$$$$$$@@@@@$$$$$@@$$$$$$$$$@@@@@@@+",
"+@@@@@@@@@@@@@@@@@$$$$$$$$$$$$$$$$@@@@@@$$$$@@@$$$$$$$$$@@@@@@@+",
"+@@@@@@@@@@@@@@@@$$$$$$$$$$$$$$$$@@@@@@@$$$@@@@$$$$$$$$$@@@@@@@+",
"+@@@@@@@@@@@@@@@$$$$$$$$$$$$$$$$@@@@@@@@$$@@@@@$$$$$$$$$@@@@@@@+",
"+@@@@@@@@@@@@@@$$$$$$$$$$$$$$$$@@@@@@@@@$@@@@@@$$$$$$$$$@@@@@@@+",
"+@@@@@@@@@@@@@$$$$$$$$$$$$$$$$@@@@@@@@@@@@@@@@@$$$$$$$$$@@@@@@@+",
"+@@@@@@@@@@@@$$$$$$$$$$$$$$$$@@@@@@@@@@@@@@@@@@$$$$$$$$$@@@@@@@+",
"+@@@@@@@@@@@$$$$$$$$$$$$$$$$@@@@@@@@@@@@@@@@@@$$$$$$$$$@@@@@@@@+",
"+@@@@@@@@@@$$$$$$$$$$$$$$$$@@@@@@@@@@@@@@@@@@$$$$$$$$$@@@@@@@@@+",
"+@@@@@@@@@$$$$$$$$$$$$$$$$@@@@@@@@@@@@@@@@@@$$$$$$$$$@@@@@@@@@@+",
"+@@@@@@@@$$$$$$$$$$$$$$$$@@@@@@@@@@@@@@@@@@$$$$$$$$$@@@@@@@@@@@+",
"+@@@@@@@$$$$$$$$$$$$$$$$@@@@@@@@@@@@@@@@@@$$$$$$$$$@@@@@@@@@@@@+",
"+@@@@@@$$$$$$$$$$$$$$$$@@@@@@@@@@@@@@@@@@$$$$$$$$$@@@@@@@@@@@@@+",
"+@@@@@$$$$$$$$$$$$$$$$@@@@@@@@@@@@@@@@@@@$$$$$$$$@@@@@@$@@@@@@@+",
"+@@@@@$$$$$$$$$$$$$$$$@@@@@@@@@@@@@@@@@@@$$$$$$$$@@@@@$$@@@@@@@+",
"+@@@@@$$$$$$$$$$$$$$$$$$$$$$$$$$$$$$$$@@@$$$$$$$$@@@@$$$@@@@@@@+",
"+@@@@@$$$$$$$$$$$$$$$$$$$$$$$$$$$$$$$$@@@$$$$$$$$@@@$$$$@@@@@@@+",
"+@@@@@$$$$$$$$$$$$$$$$$$$$$$$$$$$$$$$$@@@$$$$$$$$@@$$$$$@@@@@@@+",
"+@@@@@$$$$$$$$$$$$$$$$$$$$$$$$$$$$$$$$@@@$$$$$$$$@$$$$$$@@@@@@@+",
"+@@@@@@@@@@@@@@@@@@@@@@@@@@@$$$$$$$$$$@@@$$$$$$$$$$$$$$$@@@@@@@+",
"+@@@@@@@@@@@@@@@@@@@@@@@@@@@$$$$$$$$$$@@@@@@@@@@@@@@@@@@@@@@@@@+",
"+@@@@@@@@@@@@@@@@@@@@@@@@@@@$$$$$$$$$$@@@@@@@@@@@@@@@@@@@@@@@@@+",
"+@@@@@@@@@@@@@@@@@@@@@@@@@@@$$$$$$$$$$@@@@@@@@@@@@@@@@@@@@@@@@@+",
"+@@@@@@@@@@@@@@@@@@@@@@@@@@@$$$$$$$$$$@@@@@@@@@@@@@@@@@@@@@@@@@+",
"+@@@@@@@@@@@@@@@@@@$$@@@@@@@@@@@@@@@@@@@@@@@@@@@@@@@@@@@@@@@@@@+",
"+@@@@@@@@@@@@@@@@@@$$@@@@@@@@@@@@@@@@@@@@@@@@@@@@@@@@@@@@@@@@@@+",
"+@@@@@@@@@@@@@@@@@@$$@$$$$$@@$$$$$@$$@@$$$$$$@@@$$@@$$@$$$$$$@@+",
"+@@@@@@@@@@@@@@@@@@$$@$$@@$$@$$@@@@$$@@$$@@@$$@@$$@@$$@$$$$$$@@+",
"+@@@@@@@@@@@@@@@@@@$$@$$@@$$@$$@@@@$$@@$$@@@$$@@$$@@$$@@@$$@@@@+",
"+@@@@@@@@@@@@@@@@@@$$@$$$$$@@$$$$$@$$@@$$$$$$@@@$$@@$$@@@$$@@@@+",
"+@@@@@@@@@@@@@@@@@@$$@$$@@$$@$$@@@@$$@@$$@@$$@@@$$@@$$@@@$$@@@@+",
"+@@@@@@@@@@@@@@@@@@$$@$$@@$$@$$@@@@$$@@$$@@@$$@@$$@@$$@@@$$@@@@+",
"+@@@@@@@@@@@@@@@@@@$$@$$$$$@@$$$$$@$$@@$$@@@@$$@$$$$$$@@@$$@@@@+",
"+@@@@@@@@@@@@@@@@@@$$@@@@@@@@@@@@@@@@@@@@@@@@@@@@@@@@@@@@@@@@@@+",
"+@@@@@@@@@@@@@@@@@@$$@@@@@@@@@@@@@@@@@@@@@@@@@@@@@@@@@@@@@@@@@@+",
"+@@@@@@@@@@@@@@@@@@@@@@@@@@@@@@@@@@@@@@@@@@@@@@@@@@@@@@@@@@@@@@+",
"+@@@@@@@@@@@@@@@@@@@@@@@@@@@@@@@@@@@@@@@@@@@@@@@@@@@@@@@@@@@@@@+",
"+@@@@@@@@@@@@@@@@@@@@@@@@@@@@@@@@@@@@@@@@@@@@@@@@@@@@@@@@@@@@@@+",
"+@@@@@@@@@@@@@@@@@@@@@@@@@@@@@@@@$@@@@@@@@@@@@@@@@@@@@@@@@@@@@@+",
"+@@@@@@@@@@@@@@@@@@@@@@@@@@@@@@@@$@@@@@@@@@@@@@@@@@@@@@@@@@@@@@+",
"+@@@@@@@@@@@@@@@@@@@@@@@@@@@@@@$@$@$@@@@@@@@@@@@@@@@@@@@@@@@@@@+",
"+@@@@@@@@@@@@@@@@@@@@@@@@@@@@@@@$$$@@@@@@@@@@@@@@@@@@@@@@@@@@@@+",
"+@@@@@@@@@@@@@@@@@@@@@@@@@@@@@@@@$@@@@@@@@@@@@@@@@@@@@@@@@@@@@@+",
"+@@@@@@@@@@@@@@@@@@@@@@@@@@@@@@@@@@@@@@@@@@@@@@@@@@@@@@@@@@@@@@+",
"+@@@@@@@@@@@@@@@@@@@@@@@@@@@@@@@@@@@@@@@@@@@@@@@@@@@@@@@@@@@@@@+",
"+@@@@@@@@@@@@@@@@@@@@@@@@@@@@@@@@@@@@@@@@@@@@@@@@@@@@@@@@@@@@@@+",
"                                                                ",
"................................................................",
"                                                                "};
